<svg width="48" height="48" version="1.1" viewBox="0 0 14.4 14.4" xmlns="http://www.w3.org/2000/svg">
 <defs>
  <style id="current-color-scheme" type="text/css">.ColorScheme-Text {
        color:#232629;
      }</style>
 </defs>
 <path class="ColorScheme-Text" d="m5.7 1.2c-2.493 0-4.5 2.0093-4.5 4.4985 0 2.4922 2.01 4.4985 4.5 4.4985 1.0636 0 2.0263-0.38108 2.7949-0.99382l3.998 3.9967 0.70703-0.7068-3.998-3.9967c0.61565-0.76953 0.99805-1.7329 0.99805-2.7979 0-2.4922-2.01-4.4985-4.5-4.4985zm0 0.99968c1.939 0 3.5 1.5605 3.5 3.4989s-1.561 3.4989-3.5 3.4989-3.5-1.5605-3.5-3.4989 1.561-3.4989 3.5-3.4989z" color="#232629" fill="currentColor"/>
</svg>
